# xmcd
#
# Track frame offsets: 
#        150
#        21925
#        49970
#        73878
#        93025
#        117405
#        126103
#        153523
#        180280
#        200688
#        221168
#        242153
#
# Disc length: 3412 seconds
#
# Revision: 3
# Processed by: cddbd v1.5.2PL0 Copyright (c) Steve Scherf et al.
# Submitted via: ExactAudioCopy v1.0b1
#
DISCID=ae0d520c
DTITLE=Joe Pass - Virtuoso #3
DYEAR=1977
DGENRE=Jazz
TTITLE0=Offbeat
TTITLE1=Trinidad
TTITLE2=Nina's Blues
TTITLE3=Sevenths
TTITLE4=Ninths
TTITLE5=Dissonance #1
TTITLE6=Minor Detail
TTITLE7=Paco De Lucia
TTITLE8=Sultry
TTITLE9=Passanova
TTITLE10=Pasta Blues
TTITLE11=Dissonance #2
EXTD=YEAR: 1977
EXTT0=
EXTT1=
EXTT2=
EXTT3=
EXTT4=
EXTT5=
EXTT6=
EXTT7=
EXTT8=
EXTT9=
EXTT10=
EXTT11=
PLAYORDER=
